<svg xmlns="http://www.w3.org/2000/svg" xmlns:xlink="http://www.w3.org/1999/xlink" viewBox="0,0,256,256" width="100px" height="100px" fill-rule="nonzero"><g fill="none" fill-rule="nonzero" stroke="none" stroke-width="1" stroke-linecap="butt" stroke-linejoin="miter" stroke-miterlimit="10" stroke-dasharray="" stroke-dashoffset="0" font-family="none" font-weight="none" font-size="none" text-anchor="none" style="mix-blend-mode: normal"><g transform="scale(2.56,2.56)"><path d="M21.5,92c-6.341,0 -11.5,-5.159 -11.5,-11.5v-59c0,-6.341 5.159,-11.5 11.5,-11.5h59c6.341,0 11.5,5.159 11.5,11.5v59c0,6.341 -5.159,11.5 -11.5,11.5z" fill="#000000" opacity="0.35"></path><path d="M19.5,90c-6.341,0 -11.5,-5.159 -11.5,-11.5v-59c0,-6.341 5.159,-11.5 11.5,-11.5h59c6.341,0 11.5,5.159 11.5,11.5v59c0,6.341 -5.159,11.5 -11.5,11.5z" fill="#e6f1ff"></path><path d="M78.5,83.5h-59c-2.761,0 -5,-2.239 -5,-5v-59c0,-2.761 2.239,-5 5,-5h59c2.761,0 5,2.239 5,5v59c0,2.761 -2.239,5 -5,5z" fill="#0a192f"></path><path d="M69,45h-16v-16h-8v16h-16v8h16v16h8v-16h16z" fill="#e6f1ff"></path><path d="M78.5,85h-59c-3.584,0 -6.5,-2.916 -6.5,-6.5v-59c0,-3.584 2.916,-6.5 6.5,-6.5h59c3.584,0 6.5,2.916 6.5,6.5v59c0,3.584 -2.916,6.5 -6.5,6.5zM19.5,16c-1.93,0 -3.5,1.57 -3.5,3.5v59c0,1.93 1.57,3.5 3.5,3.5h59c1.93,0 3.5,-1.57 3.5,-3.5v-59c0,-1.93 -1.57,-3.5 -3.5,-3.5z" fill="#8892b0"></path></g></g></svg>