<svg xmlns="http://www.w3.org/2000/svg" xmlns:xlink="http://www.w3.org/1999/xlink" viewBox="0,0,256,256" width="100px" height="100px" fill-rule="nonzero"><g fill="none" fill-rule="nonzero" stroke="none" stroke-width="1" stroke-linecap="butt" stroke-linejoin="miter" stroke-miterlimit="10" stroke-dasharray="" stroke-dashoffset="0" font-family="none" font-weight="none" font-size="none" text-anchor="none" style="mix-blend-mode: normal"><g transform="scale(2.56,2.56)"><path d="M22.5,93c-6.341,0 -11.5,-5.159 -11.5,-11.5v-59c0,-6.341 5.159,-11.5 11.5,-11.5h59c6.341,0 11.5,5.159 11.5,11.5v59c0,6.341 -5.159,11.5 -11.5,11.5z" fill="#000000" opacity="0.35"></path><path d="M20.5,91c-6.341,0 -11.5,-5.159 -11.5,-11.5v-59c0,-6.341 5.159,-11.5 11.5,-11.5h59c6.341,0 11.5,5.159 11.5,11.5v59c0,6.341 -5.159,11.5 -11.5,11.5z" fill="#e6f1ff"></path><path d="M79.5,84.5h-59c-2.761,0 -5,-2.239 -5,-5v-59c0,-2.761 2.239,-5 5,-5h59c2.761,0 5,2.239 5,5v59c0,2.761 -2.239,5 -5,5z" fill="#0a192f"></path><path d="M79.5,86h-59c-3.584,0 -6.5,-2.916 -6.5,-6.5v-59c0,-3.584 2.916,-6.5 6.5,-6.5h59c3.584,0 6.5,2.916 6.5,6.5v59c0,3.584 -2.916,6.5 -6.5,6.5zM20.5,17c-1.93,0 -3.5,1.57 -3.5,3.5v59c0,1.93 1.57,3.5 3.5,3.5h59c1.93,0 3.5,-1.57 3.5,-3.5v-59c0,-1.93 -1.57,-3.5 -3.5,-3.5z" fill="#8892b0"></path><path d="M42.017,65c-0.767,0 -1.534,-0.292 -2.12,-0.877l-10.017,-10c-1.172,-1.17 -1.174,-3.07 -0.003,-4.243c1.17,-1.173 3.069,-1.175 4.243,-0.003l7.896,7.882l23.881,-23.88c1.171,-1.172 3.071,-1.172 4.242,0c1.172,1.171 1.172,3.071 0,4.242l-26,26c-0.586,0.586 -1.354,0.879 -2.122,0.879z" fill="#00ff13"></path></g></g></svg>