<?xml version="1.0" encoding="utf-8"?>
<!-- Generator: Adobe Illustrator 27.0.0, SVG Export Plug-In . SVG Version: 6.00 Build 0)  -->
<svg version="1.1" id="Warstwa_1" xmlns="http://www.w3.org/2000/svg" xmlns:xlink="http://www.w3.org/1999/xlink" x="0px" y="0px"
	 viewBox="0 0 100 100" style="enable-background:new 0 0 100 100;" xml:space="preserve">
<style type="text/css">
	.st0{opacity:0.35;enable-background:new    ;}
	.st1{fill:#E6F1FF;}
	.st2{fill:#0A192F;}
	.st3{fill:#8892B0;}
	.st4{fill:#42A5F5;}
	.st5{fill:#1565C0;}
	.st6{fill:#E57373;}
	.st7{fill:#FF9800;}
	.st8{fill:#B0BEC5;}
	.st9{fill:#FFC107;}
	.st10{fill:#37474F;}
</style>
<g>
	<g transform="scale(2.56,2.56)">
		<path class="st0" d="M10.4,36.3c-3.3,0-6.1-2.7-6.1-6.1V10.4C4.3,7,7,4.3,10.4,4.3h19.9c3.3,0,6.1,2.7,6.1,6.1v19.9
			c0,3.3-2.7,6.1-6.1,6.1H10.4z"/>
		<path class="st1" d="M9.6,35.5c-3.3,0-6.1-2.7-6.1-6.1V9.6c0-3.3,2.7-6.1,6.1-6.1h19.9c3.3,0,6.1,2.7,6.1,6.1v19.9
			c0,3.3-2.7,6.1-6.1,6.1H9.6z"/>
		<path class="st2" d="M29.5,6.1H9.6c-1.9,0-3.5,1.6-3.5,3.5v19.9c0,1.9,1.6,3.5,3.5,3.5h19.9c1.9,0,3.5-1.6,3.5-3.5V9.6
			C33,7.6,31.4,6.1,29.5,6.1z"/>
		<path class="st3" d="M29.5,33.6H9.6c-2.3,0-4.1-1.8-4.1-4.1V9.6c0-2.3,1.8-4.1,4.1-4.1h19.9c2.3,0,4.1,1.8,4.1,4.1v19.9
			C33.6,31.8,31.8,33.6,29.5,33.6z M9.6,6.6C8,6.6,6.6,8,6.6,9.6v19.9c0,1.6,1.3,2.9,2.9,2.9h19.9c1.6,0,2.9-1.3,2.9-2.9V9.6
			c0-1.6-1.3-2.9-2.9-2.9H9.6z"/>
	</g>
</g>
<path class="st4" d="M30,38.7l9-9.2l31,31.8l-9,9.2L30,38.7z"/>
<path class="st5" d="M42.2,42l-1.4-1.5l4.5-4.6l1.4,1.5L42.2,42z"/>
<path class="st5" d="M59.3,50.3l1.4,1.5l-2.5,2.6l-1.4-1.5L59.3,50.3z"/>
<path class="st5" d="M42.3,32.8l1.4,1.5l-2.5,2.6l-1.4-1.5L42.3,32.8z"/>
<path class="st5" d="M65.4,56.5l1.4,1.5l-2.5,2.6l-1.4-1.5L65.4,56.5z"/>
<path class="st5" d="M48.3,39l1.4,1.5L47.2,43l-1.4-1.5L48.3,39z"/>
<path class="st5" d="M57.8,58l4.5-4.6l1.4,1.5l-4.5,4.6L57.8,58z"/>
<path class="st6" d="M68.6,34.7l-3.7-3.7c-0.6-0.6-1.5-0.6-2,0l-1.7,1.8l5.7,5.8l1.7-1.8C69.1,36.2,69.1,35.2,68.6,34.7"/>
<path class="st7" d="M32.9,61.7l25.5-26.2l5.7,5.8L38.6,67.6L32.9,61.7z"/>
<path class="st8" d="M66.9,38.5L64,41.4l-5.7-5.8l2.8-2.9L66.9,38.5z"/>
<path class="st9" d="M32.9,61.7L31,69.5l7.6-2L32.9,61.7z"/>
<path class="st10" d="M32,65.6l-1,3.9l3.8-1L32,65.6z"/>
</svg>
