<?xml version="1.0" encoding="utf-8"?>
<!-- Generator: Adobe Illustrator 27.0.0, SVG Export Plug-In . SVG Version: 6.00 Build 0)  -->
<svg version="1.1" id="Warstwa_1" xmlns="http://www.w3.org/2000/svg" xmlns:xlink="http://www.w3.org/1999/xlink" x="0px" y="0px"
	 viewBox="0 0 96 96" style="enable-background:new 0 0 96 96;" xml:space="preserve">
<style type="text/css">
	.st0{fill:#FFC107;}
	.st1{fill:#E6F1FF;}
</style>
<path class="st0" d="M42.4,89.6l-36-36c-3.2-3.2-3.2-8.2,0-11.4l36-36c3.2-3.2,8.2-3.2,11.4,0l36,36c3.2,3.2,3.2,8.2,0,11.4l-36,36
	C50.6,92.8,45.4,92.8,42.4,89.6z"/>
<path class="st1" d="M48,44c-2.2,0-4,1.8-4,4s1.8,4,4,4s4-1.8,4-4S50.2,44,48,44z M64,44c-2.2,0-4,1.8-4,4s1.8,4,4,4
	c2.2,0,4-1.8,4-4S66.2,44,64,44z M32,44c-2.2,0-4,1.8-4,4s1.8,4,4,4s4-1.8,4-4S34.2,44,32,44z"/>
</svg>
