<?xml version="1.0" encoding="utf-8"?>
<!-- Generator: Adobe Illustrator 27.0.0, SVG Export Plug-In . SVG Version: 6.00 Build 0)  -->
<svg version="1.1" id="Warstwa_1" xmlns="http://www.w3.org/2000/svg" xmlns:xlink="http://www.w3.org/1999/xlink" x="0px" y="0px"
	 viewBox="0 0 100 100" style="enable-background:new 0 0 100 100;" xml:space="preserve">
<style type="text/css">
	.st0{opacity:0.35;enable-background:new    ;}
	.st1{fill:#E6F1FF;}
	.st2{fill:#0A192F;}
	.st3{fill:#8892B0;}
	.st4{fill:#FF0000;}
</style>
<g>
	<g transform="scale(2.56,2.56)">
		<path class="st0" d="M10.4,36.3c-3.3,0-6.1-2.7-6.1-6.1V10.4C4.3,7,7,4.3,10.4,4.3h19.9c3.3,0,6.1,2.7,6.1,6.1v19.9
			c0,3.3-2.7,6.1-6.1,6.1H10.4z"/>
		<path class="st1" d="M9.6,35.5c-3.3,0-6.1-2.7-6.1-6.1V9.6c0-3.3,2.7-6.1,6.1-6.1h19.9c3.3,0,6.1,2.7,6.1,6.1v19.9
			c0,3.3-2.7,6.1-6.1,6.1H9.6z"/>
		<path class="st2" d="M29.5,6.1H9.6c-1.9,0-3.5,1.6-3.5,3.5v19.9c0,1.9,1.6,3.5,3.5,3.5h19.9c1.9,0,3.5-1.6,3.5-3.5V9.6
			C33,7.6,31.4,6.1,29.5,6.1z"/>
		<path class="st3" d="M29.5,33.6H9.6c-2.3,0-4.1-1.8-4.1-4.1V9.6c0-2.3,1.8-4.1,4.1-4.1h19.9c2.3,0,4.1,1.8,4.1,4.1v19.9
			C33.6,31.8,31.8,33.6,29.5,33.6z M9.6,6.6C8,6.6,6.6,8,6.6,9.6v19.9c0,1.6,1.3,2.9,2.9,2.9h19.9c1.6,0,2.9-1.3,2.9-2.9V9.6
			c0-1.6-1.3-2.9-2.9-2.9H9.6z"/>
		<path class="st4" d="M26.1,14.8l-1.9-1.9l-4.7,4.7l-4.7-4.7l-1.9,1.9l4.7,4.7l-4.7,4.7l1.9,1.9l4.7-4.7l4.7,4.7l1.9-1.9l-4.7-4.7
			L26.1,14.8z"/>
	</g>
</g>
</svg>
