<?xml version="1.0" encoding="utf-8"?>
<!-- Generator: Adobe Illustrator 27.0.0, SVG Export Plug-In . SVG Version: 6.00 Build 0)  -->
<svg version="1.1" id="Warstwa_1" xmlns="http://www.w3.org/2000/svg" xmlns:xlink="http://www.w3.org/1999/xlink" x="0px" y="0px"
	 viewBox="0 0 100 100" style="enable-background:new 0 0 100 100;" xml:space="preserve">
<style type="text/css">
	.st0{opacity:0.35;enable-background:new    ;}
	.st1{fill:#E6F1FF;}
	.st2{fill:#0A192F;}
	.st3{fill:#8892B0;}
	.st4{fill:#F8B64C;}
</style>
<g>
	<g transform="scale(2.56,2.56)">
		<path class="st0" d="M8.8,36.3c-2.5,0-4.5-2-4.5-4.5v-23c0-2.5,2-4.5,4.5-4.5h23c2.5,0,4.5,2,4.5,4.5v23c0,2.5-2,4.5-4.5,4.5H8.8z
			"/>
		<path class="st1" d="M8,35.5c-2.5,0-4.5-2-4.5-4.5V8c0-2.5,2-4.5,4.5-4.5h23c2.5,0,4.5,2,4.5,4.5v23c0,2.5-2,4.5-4.5,4.5H8z"/>
		<path class="st2" d="M31.1,33H8c-1.1,0-2-0.9-2-2V8c0-1.1,0.9-2,2-2h23c1.1,0,2,0.9,2,2v23C33,32.1,32.1,33,31.1,33z"/>
		<path class="st3" d="M31.1,33.6H8c-1.4,0-2.5-1.1-2.5-2.5V8c0-1.4,1.1-2.5,2.5-2.5h23c1.4,0,2.5,1.1,2.5,2.5v23
			C33.6,32.5,32.5,33.6,31.1,33.6z M8,6.6C7.3,6.6,6.6,7.3,6.6,8v23c0,0.8,0.6,1.4,1.4,1.4h23c0.8,0,1.4-0.6,1.4-1.4V8
			c0-0.8-0.6-1.4-1.4-1.4H8z"/>
	</g>
</g>
<path class="st4" d="M67.4,43.7c-3-3-7-4.6-11.2-4.7h-17l2.8-2.8c1.3-1.3,1.3-3.4,0-4.7c-1.3-1.3-3.4-1.3-4.7,0L27.1,41.8
	c-0.1,0.1-0.2,0.3-0.2,0.5c0,0.2,0.1,0.4,0.2,0.6l10.3,10.3c1.3,1.3,3.4,1.3,4.7,0c1.3-1.3,1.3-3.4,0-4.7l-2.8-2.8h17.4
	c4.7,0.1,8.5,4.1,8.3,8.8c-0.1,4.5-3.8,8.2-8.3,8.3h-5c-1.8,0.1-3.3,1.6-3.2,3.5c0.1,1.7,1.5,3.1,3.2,3.2h5
	c8.4,0,15.2-6.8,15.2-15.2C71.8,50.3,70.2,46.5,67.4,43.7z"/>
</svg>
